# xmcd
#
# Track frame offsets:
# 150
# 17515
# 36925
# 55885
# 77499
# 100175
# 117895
# 140535
# 163519
# 193240
#
# Disc length: 3004 seconds
#
#
# Revision: 0
# Processed by: cddbd v1.5.2PL0 Copyright (c) Steve Scherf et al.
# Submitted via: FreeRIP 2.951 
#
DISCID=7c0bba0a
DTITLE=On The Rocks - After All This Time
DYEAR=1900
DGENRE=Easy Listening
TTITLE0=Everyday
TTITLE1=Things I'd Like To Know
TTITLE2=Praying
TTITLE3=She's Got It
TTITLE4=Anyone Care?
TTITLE5=Let It Go
TTITLE6=Tell Me Daddy (Bailey's Song)
TTITLE7=Why Again
TTITLE8=Run
TTITLE9=For Me
EXTD=
EXTT0=
EXTT1=
EXTT2=
EXTT3=
EXTT4=
EXTT5=
EXTT6=
EXTT7=
EXTT8=
EXTT9=
PLAYORDER=
